%TF.GenerationSoftware,KiCad,Pcbnew,9.0.4*%
%TF.CreationDate,2025-12-17T15:56:46+07:00*%
%TF.ProjectId,CARTPOLE_MOSFET,43415254-504f-44c4-955f-4d4f53464554,rev?*%
%TF.SameCoordinates,Original*%
%TF.FileFunction,Soldermask,Bot*%
%TF.FilePolarity,Negative*%
%FSLAX46Y46*%
G04 Gerber Fmt 4.6, Leading zero omitted, Abs format (unit mm)*
G04 Created by KiCad (PCBNEW 9.0.4) date 2025-12-17 15:56:46*
%MOMM*%
%LPD*%
G01*
G04 APERTURE LIST*
G04 Aperture macros list*
%AMRoundRect*
0 Rectangle with rounded corners*
0 $1 Rounding radius*
0 $2 $3 $4 $5 $6 $7 $8 $9 X,Y pos of 4 corners*
0 Add a 4 corners polygon primitive as box body*
4,1,4,$2,$3,$4,$5,$6,$7,$8,$9,$2,$3,0*
0 Add four circle primitives for the rounded corners*
1,1,$1+$1,$2,$3*
1,1,$1+$1,$4,$5*
1,1,$1+$1,$6,$7*
1,1,$1+$1,$8,$9*
0 Add four rect primitives between the rounded corners*
20,1,$1+$1,$2,$3,$4,$5,0*
20,1,$1+$1,$4,$5,$6,$7,0*
20,1,$1+$1,$6,$7,$8,$9,0*
20,1,$1+$1,$8,$9,$2,$3,0*%
G04 Aperture macros list end*
%ADD10C,1.712000*%
%ADD11RoundRect,0.102000X-0.754000X-0.754000X0.754000X-0.754000X0.754000X0.754000X-0.754000X0.754000X0*%
%ADD12R,1.700000X1.700000*%
%ADD13C,1.700000*%
%ADD14R,1.905000X2.000000*%
%ADD15O,1.905000X2.000000*%
%ADD16C,0.800000*%
%ADD17C,6.400000*%
%ADD18RoundRect,0.250001X-1.399999X-3.049999X1.399999X-3.049999X1.399999X3.049999X-1.399999X3.049999X0*%
%ADD19O,3.300000X6.600000*%
%ADD20RoundRect,0.250001X1.399999X3.049999X-1.399999X3.049999X-1.399999X-3.049999X1.399999X-3.049999X0*%
%ADD21C,1.600000*%
G04 APERTURE END LIST*
D10*
%TO.C,U6*%
X149532500Y-116470000D03*
X146992500Y-116470000D03*
X144452500Y-116470000D03*
D11*
X141912500Y-116470000D03*
%TD*%
D12*
%TO.C,J3*%
X180090000Y-73482500D03*
D13*
X180090000Y-76022500D03*
X180090000Y-78562500D03*
X180090000Y-81102500D03*
%TD*%
D12*
%TO.C,J6*%
X180090000Y-86265000D03*
D13*
X180090000Y-88805000D03*
X180090000Y-91345000D03*
X180090000Y-93885000D03*
%TD*%
D12*
%TO.C,J12*%
X149150000Y-102990000D03*
D13*
X149150000Y-100450000D03*
%TD*%
D14*
%TO.C,U4*%
X104660000Y-78050000D03*
D15*
X107200000Y-78050000D03*
X109740000Y-78050000D03*
%TD*%
D16*
%TO.C,H6*%
X87050000Y-25000000D03*
X85352944Y-24297056D03*
X88747056Y-24297056D03*
X84650000Y-22600000D03*
D17*
X87050000Y-22600000D03*
D16*
X89450000Y-22600000D03*
X85352944Y-20902944D03*
X88747056Y-20902944D03*
X87050000Y-20200000D03*
%TD*%
%TO.C,H7*%
X87050000Y-117000000D03*
X85352944Y-116297056D03*
X88747056Y-116297056D03*
X84650000Y-114600000D03*
D17*
X87050000Y-114600000D03*
D16*
X89450000Y-114600000D03*
X85352944Y-112902944D03*
X88747056Y-112902944D03*
X87050000Y-112200000D03*
%TD*%
D12*
%TO.C,J16*%
X85320000Y-53265000D03*
D13*
X85320000Y-50725000D03*
%TD*%
D12*
%TO.C,J10*%
X136365000Y-116570000D03*
D13*
X133825000Y-116570000D03*
%TD*%
D16*
%TO.C,H5*%
X178775000Y-25000000D03*
X177077944Y-24297056D03*
X180472056Y-24297056D03*
X176375000Y-22600000D03*
D17*
X178775000Y-22600000D03*
D16*
X181175000Y-22600000D03*
X177077944Y-20902944D03*
X180472056Y-20902944D03*
X178775000Y-20200000D03*
%TD*%
D12*
%TO.C,J13*%
X126320000Y-80340000D03*
D13*
X128860000Y-80340000D03*
%TD*%
D12*
%TO.C,J15*%
X90320000Y-53270000D03*
D13*
X90320000Y-50730000D03*
%TD*%
D18*
%TO.C,J1*%
X99450000Y-105030000D03*
D19*
X108950000Y-105030000D03*
%TD*%
D16*
%TO.C,H8*%
X179050000Y-117000000D03*
X177352944Y-116297056D03*
X180747056Y-116297056D03*
X176650000Y-114600000D03*
D17*
X179050000Y-114600000D03*
D16*
X181450000Y-114600000D03*
X177352944Y-112902944D03*
X180747056Y-112902944D03*
X179050000Y-112200000D03*
%TD*%
D12*
%TO.C,J5*%
X180090000Y-28410000D03*
D13*
X180090000Y-30950000D03*
X180090000Y-33490000D03*
X180090000Y-36030000D03*
%TD*%
D12*
%TO.C,J4*%
X180090000Y-60720000D03*
D13*
X180090000Y-63260000D03*
X180090000Y-65800000D03*
X180090000Y-68340000D03*
%TD*%
D12*
%TO.C,J14*%
X126330000Y-75340000D03*
D13*
X128870000Y-75340000D03*
%TD*%
D20*
%TO.C,J2*%
X168570000Y-32400000D03*
D19*
X159070000Y-32400000D03*
%TD*%
D12*
%TO.C,J11*%
X154150000Y-102990000D03*
D13*
X154150000Y-100450000D03*
%TD*%
D12*
%TO.C,J8*%
X174220000Y-70610000D03*
D13*
X171680000Y-70610000D03*
X169140000Y-70610000D03*
%TD*%
D12*
%TO.C,J7*%
X154550000Y-74762500D03*
D13*
X154550000Y-77302500D03*
X154550000Y-79842500D03*
%TD*%
D21*
%TO.C,C6*%
X95900000Y-38470000D03*
X90900000Y-38470000D03*
%TD*%
D12*
%TO.C,J9*%
X133815000Y-111490000D03*
D13*
X136355000Y-111490000D03*
%TD*%
M02*
