M48
; DRILL file {KiCad 9.0.4} date 2025-12-17T15:56:49+0700
; FORMAT={-:-/ absolute / metric / decimal}
; #@! TF.CreationDate,2025-12-17T15:56:49+07:00
; #@! TF.GenerationSoftware,Kicad,Pcbnew,9.0.4
; #@! TF.FileFunction,Plated,1,2,PTH
FMAT,2
METRIC
; #@! TA.AperFunction,Plated,PTH,ViaDrill
T1C0.300
; #@! TA.AperFunction,Plated,PTH,ComponentDrill
T2C0.300
; #@! TA.AperFunction,Plated,PTH,ViaDrill
T3C0.500
; #@! TA.AperFunction,Plated,PTH,ComponentDrill
T4C0.500
; #@! TA.AperFunction,Plated,PTH,ComponentDrill
T5C0.800
; #@! TA.AperFunction,Plated,PTH,ComponentDrill
T6C1.000
; #@! TA.AperFunction,Plated,PTH,ComponentDrill
T7C1.100
; #@! TA.AperFunction,Plated,PTH,ComponentDrill
T8C2.000
; #@! TA.AperFunction,Plated,PTH,ComponentDrill
T9C3.200
%
G90
G05
T1
X84.48Y-68.0
X90.41Y-117.8
X92.57Y-58.97
X92.63Y-75.63
X92.86Y-84.5
X94.6Y-90.33
X94.66Y-87.31
X94.69Y-81.67
X94.72Y-96.87
X96.52Y-84.51
X97.8Y-76.91
X97.84Y-58.81
X99.15Y-80.03
X99.27Y-70.12
X99.28Y-68.12
X100.41Y-117.8
X100.56Y-81.32
X100.62Y-71.55
X101.97Y-80.03
X103.58Y-93.6
X104.01Y-105.22
X104.125Y-69.05
X104.83Y-86.63
X105.8Y-73.475
X106.62Y-64.08
X106.63Y-67.0
X107.17Y-96.61
X107.64Y-65.69
X109.09Y-99.44
X109.1Y-93.78
X110.3Y-86.04
X110.41Y-117.8
X110.88Y-96.59
X111.35Y-58.94
X111.77Y-63.52
X111.922Y-71.522
X112.34Y-77.96
X113.45Y-68.175
X113.75Y-55.98
X113.76Y-76.66
X114.01Y-105.22
X114.48Y-98.75
X114.59Y-92.21
X115.11Y-77.95
X116.65Y-86.29
X117.11Y-110.34
X117.27Y-80.35
X117.3Y-73.475
X117.76Y-67.28
X117.89Y-70.05
X118.465Y-79.125
X118.67Y-74.4
X119.23Y-71.44
X119.53Y-97.63
X119.6Y-94.06
X120.07Y-76.66
X120.41Y-117.8
X121.52Y-55.91
X122.18Y-94.02
X122.33Y-79.34
X122.65Y-110.33
X122.75Y-72.6
X122.79Y-103.12
X122.79Y-106.63
X123.35Y-67.8
X123.42Y-84.95
X123.8Y-95.14
X123.95Y-97.84
X125.13Y-67.45
X126.11Y-65.74
X126.76Y-69.98
X128.05Y-103.05
X128.16Y-110.23
X128.69Y-117.68
X128.89Y-82.93
X130.02Y-116.48
X130.26Y-72.27
X130.66Y-89.72
X130.66Y-91.72
X130.66Y-93.72
X130.66Y-95.72
X130.82Y-65.66
X131.57Y-55.91
X132.38Y-81.43
X132.4Y-69.99
X132.65Y-74.275
X132.66Y-91.72
X132.66Y-93.72
X132.66Y-95.72
X132.66Y-97.72
X132.66Y-99.72
X132.67Y-117.72
X132.76Y-115.48
X133.25Y-86.92
X133.52Y-82.4
X133.54Y-71.23
X134.66Y-93.72
X134.66Y-95.72
X134.66Y-97.72
X134.66Y-99.72
X134.84Y-115.16
X135.55Y-82.43
X135.56Y-71.25
X135.57Y-55.92
X136.35Y-85.3
X136.66Y-93.72
X136.66Y-95.72
X136.84Y-81.4
X136.89Y-69.98
X137.355Y-60.265
X137.66Y-71.71
X137.78Y-84.74
X138.57Y-55.92
X138.66Y-93.72
X138.66Y-95.72
X138.66Y-97.72
X138.66Y-99.72
X138.89Y-58.6
X138.94Y-70.31
X139.43Y-83.16
X140.22Y-71.75
X140.28Y-60.29
X140.66Y-95.72
X140.66Y-97.72
X140.66Y-99.72
X141.13Y-68.14
X141.13Y-78.13
X141.16Y-58.82
X141.18Y-84.72
X141.57Y-55.92
X142.65Y-94.01
X146.48Y-109.04
X146.52Y-113.54
X146.7Y-97.49
X146.99Y-58.2
X147.26Y-74.27
X147.27Y-62.84
X147.94Y-83.5
X149.335Y-91.658
X149.67Y-62.85
X150.46Y-95.75
X151.6Y-115.05
X152.71Y-60.81
X152.77Y-114.0
X153.65Y-65.66
X153.79Y-94.82
X153.81Y-69.77
X154.04Y-59.62
X154.05Y-62.01
X154.1Y-86.95
X155.01Y-86.04
X155.76Y-87.72
X156.13Y-117.8
X156.22Y-85.21
X156.56Y-49.79
X156.57Y-52.499
X157.11Y-84.3
X157.19Y-57.89
X157.87Y-89.42
X158.31Y-106.18
X158.315Y-66.725
X159.94Y-96.4
X160.02Y-103.53
X160.02Y-108.82
X160.16Y-88.58
X160.31Y-87.527
X160.74Y-83.79
X161.02Y-82.54
X161.33Y-96.44
X161.33Y-98.0
X161.71Y-106.17
X161.83Y-79.33
X161.87Y-100.71
X161.91Y-84.95
X161.98Y-71.19
X161.99Y-76.09
X162.68Y-83.27
X163.19Y-61.72
X163.389Y-65.889
X163.75Y-93.92
X163.76Y-92.47
X163.9Y-52.325
X164.23Y-64.86
X164.249Y-89.31
X164.26Y-62.87
X164.7Y-60.81
X164.76Y-111.97
X164.81Y-117.78
X164.885Y-102.195
X165.049Y-89.31
X165.11Y-83.06
X165.11Y-85.55
X165.13Y-79.06
X165.76Y-95.74
X165.836Y-89.454
X165.95Y-110.53
X165.96Y-113.42
X166.03Y-62.0
X166.04Y-59.6
X166.76Y-94.04
X166.79Y-69.66
X167.19Y-57.89
X167.44Y-114.21
X167.93Y-66.96
X168.11Y-98.93
X168.12Y-96.98
X168.26Y-82.449
X168.33Y-65.87
X168.47Y-115.38
X168.57Y-52.48
X168.58Y-49.8
X168.765Y-81.795
X169.05Y-97.93
X169.14Y-77.75
X169.41Y-79.58
X169.516Y-81.52
X169.6Y-93.96
X169.61Y-91.47
X170.05Y-100.72
X170.32Y-82.659
X170.366Y-86.181
X171.08Y-80.04
X171.25Y-101.91
X171.27Y-99.54
X171.56Y-96.99
X171.58Y-98.87
X171.71Y-107.35
X172.02Y-83.6
X172.425Y-53.05
X172.44Y-97.93
X172.45Y-100.75
X172.48Y-66.96
X172.66Y-80.68
X172.8Y-86.16
X172.9Y-108.41
X173.07Y-77.75
X173.285Y-78.725
X173.41Y-85.59
X173.41Y-91.54
X173.41Y-93.42
X173.42Y-83.73
X174.34Y-92.49
X174.9Y-108.39
X174.931Y-77.08
X175.19Y-66.0
X175.2Y-61.66
X175.23Y-81.67
X175.25Y-114.08
X175.4Y-83.59
X175.7Y-49.775
X175.81Y-97.588
X176.12Y-107.34
X176.13Y-64.84
X176.13Y-117.8
X176.22Y-62.8
X176.61Y-68.48
X176.63Y-79.58
X176.65Y-72.03
X176.69Y-69.58
X177.19Y-57.89
X177.289Y-88.96
X178.09Y-110.9
X178.425Y-45.925
X178.46Y-100.22
X178.575Y-39.675
X178.73Y-60.7
X178.81Y-86.27
X179.03Y-77.38
X180.07Y-59.37
X180.07Y-85.0
X180.079Y-74.673
X180.08Y-72.21
X180.66Y-101.49
X180.67Y-98.98
X181.31Y-106.602
X181.45Y-60.71
X181.75Y-33.375
X181.75Y-43.375
X181.75Y-53.375
X182.11Y-57.49
T2
X125.43Y-95.5
X125.43Y-96.7
X126.63Y-95.5
X126.63Y-96.7
X127.93Y-95.5
X127.93Y-96.7
X129.03Y-95.5
X129.03Y-96.7
T3
X85.1Y-94.7
X85.1Y-96.7
X85.1Y-98.7
X85.1Y-100.7
X85.1Y-102.7
X87.1Y-100.7
X87.1Y-102.7
X87.1Y-104.7
X89.1Y-100.7
X89.1Y-102.7
X89.1Y-104.7
X89.1Y-106.7
X91.1Y-94.7
X91.1Y-96.7
X91.1Y-98.7
X91.1Y-100.7
X91.1Y-102.7
X91.1Y-104.7
X91.1Y-106.7
X93.1Y-102.7
X93.1Y-104.7
X93.1Y-106.7
X95.1Y-102.7
X95.1Y-104.7
X95.1Y-106.7
X97.1Y-102.7
X97.1Y-104.7
X97.1Y-106.7
X104.08Y-58.83
X106.65Y-58.89
X122.59Y-58.91
X124.35Y-33.03
X124.35Y-50.16
X125.2Y-58.81
X126.68Y-32.95
X126.75Y-50.08
X130.3Y-32.49
X130.56Y-48.49
X131.4Y-68.575
X133.44Y-30.8
X133.44Y-34.29
X133.58Y-47.2
X133.58Y-49.8
X136.64Y-32.47
X136.77Y-48.55
X149.3Y-29.72
X149.34Y-24.89
X149.49Y-40.96
X149.51Y-45.85
X151.39Y-27.42
X151.45Y-43.47
T4
X84.65Y-22.6
X84.65Y-114.6
X85.353Y-20.903
X85.353Y-24.297
X85.353Y-112.903
X85.353Y-116.297
X87.05Y-20.2
X87.05Y-25.0
X87.05Y-112.2
X87.05Y-117.0
X88.747Y-20.903
X88.747Y-24.297
X88.747Y-112.903
X88.747Y-116.297
X89.45Y-22.6
X89.45Y-114.6
X176.375Y-22.6
X176.65Y-114.6
X177.078Y-20.903
X177.078Y-24.297
X177.353Y-112.903
X177.353Y-116.297
X178.775Y-20.2
X178.775Y-25.0
X179.05Y-112.2
X179.05Y-117.0
X180.472Y-20.903
X180.472Y-24.297
X180.747Y-112.903
X180.747Y-116.297
X181.175Y-22.6
X181.45Y-114.6
T5
X90.9Y-38.47
X95.9Y-38.47
T6
X85.32Y-50.725
X85.32Y-53.265
X90.32Y-50.73
X90.32Y-53.27
X126.32Y-80.34
X126.33Y-75.34
X128.86Y-80.34
X128.87Y-75.34
X133.815Y-111.49
X133.825Y-116.57
X136.355Y-111.49
X136.365Y-116.57
X141.912Y-116.47
X144.452Y-116.47
X146.993Y-116.47
X149.15Y-100.45
X149.15Y-102.99
X149.532Y-116.47
X154.15Y-100.45
X154.15Y-102.99
X154.55Y-74.763
X154.55Y-77.302
X154.55Y-79.843
X169.14Y-70.61
X171.68Y-70.61
X174.22Y-70.61
X180.09Y-28.41
X180.09Y-30.95
X180.09Y-33.49
X180.09Y-36.03
X180.09Y-60.72
X180.09Y-63.26
X180.09Y-65.8
X180.09Y-68.34
X180.09Y-73.483
X180.09Y-76.022
X180.09Y-78.562
X180.09Y-81.102
X180.09Y-86.265
X180.09Y-88.805
X180.09Y-91.345
X180.09Y-93.885
T7
X104.66Y-78.05
X107.2Y-78.05
X109.74Y-78.05
T8
X99.45Y-105.03
X108.95Y-105.03
X159.07Y-32.4
X168.57Y-32.4
T9
X87.05Y-22.6
X87.05Y-114.6
X178.775Y-22.6
X179.05Y-114.6
M30
