%TF.GenerationSoftware,KiCad,Pcbnew,9.0.4*%
%TF.CreationDate,2025-12-17T15:56:46+07:00*%
%TF.ProjectId,CARTPOLE_MOSFET,43415254-504f-44c4-955f-4d4f53464554,rev?*%
%TF.SameCoordinates,Original*%
%TF.FileFunction,Soldermask,Top*%
%TF.FilePolarity,Negative*%
%FSLAX46Y46*%
G04 Gerber Fmt 4.6, Leading zero omitted, Abs format (unit mm)*
G04 Created by KiCad (PCBNEW 9.0.4) date 2025-12-17 15:56:46*
%MOMM*%
%LPD*%
G01*
G04 APERTURE LIST*
G04 Aperture macros list*
%AMRoundRect*
0 Rectangle with rounded corners*
0 $1 Rounding radius*
0 $2 $3 $4 $5 $6 $7 $8 $9 X,Y pos of 4 corners*
0 Add a 4 corners polygon primitive as box body*
4,1,4,$2,$3,$4,$5,$6,$7,$8,$9,$2,$3,0*
0 Add four circle primitives for the rounded corners*
1,1,$1+$1,$2,$3*
1,1,$1+$1,$4,$5*
1,1,$1+$1,$6,$7*
1,1,$1+$1,$8,$9*
0 Add four rect primitives between the rounded corners*
20,1,$1+$1,$2,$3,$4,$5,0*
20,1,$1+$1,$4,$5,$6,$7,0*
20,1,$1+$1,$6,$7,$8,$9,0*
20,1,$1+$1,$8,$9,$2,$3,0*%
G04 Aperture macros list end*
%ADD10C,1.712000*%
%ADD11RoundRect,0.102000X-0.754000X-0.754000X0.754000X-0.754000X0.754000X0.754000X-0.754000X0.754000X0*%
%ADD12R,1.700000X1.700000*%
%ADD13C,1.700000*%
%ADD14RoundRect,0.250000X0.337500X0.475000X-0.337500X0.475000X-0.337500X-0.475000X0.337500X-0.475000X0*%
%ADD15R,3.810000X4.240000*%
%ADD16RoundRect,0.250000X0.350000X0.450000X-0.350000X0.450000X-0.350000X-0.450000X0.350000X-0.450000X0*%
%ADD17RoundRect,0.225000X-0.225000X-0.250000X0.225000X-0.250000X0.225000X0.250000X-0.225000X0.250000X0*%
%ADD18RoundRect,0.200000X-0.200000X-0.275000X0.200000X-0.275000X0.200000X0.275000X-0.200000X0.275000X0*%
%ADD19RoundRect,0.250000X0.475000X-0.337500X0.475000X0.337500X-0.475000X0.337500X-0.475000X-0.337500X0*%
%ADD20RoundRect,0.250000X0.450000X-0.350000X0.450000X0.350000X-0.450000X0.350000X-0.450000X-0.350000X0*%
%ADD21RoundRect,0.225000X0.225000X0.250000X-0.225000X0.250000X-0.225000X-0.250000X0.225000X-0.250000X0*%
%ADD22RoundRect,0.250000X0.650000X-1.500000X0.650000X1.500000X-0.650000X1.500000X-0.650000X-1.500000X0*%
%ADD23RoundRect,0.250000X-2.050000X-0.300000X2.050000X-0.300000X2.050000X0.300000X-2.050000X0.300000X0*%
%ADD24RoundRect,0.250002X-4.449998X-5.149998X4.449998X-5.149998X4.449998X5.149998X-4.449998X5.149998X0*%
%ADD25RoundRect,0.250000X-0.450000X0.350000X-0.450000X-0.350000X0.450000X-0.350000X0.450000X0.350000X0*%
%ADD26RoundRect,0.250000X-0.650000X1.500000X-0.650000X-1.500000X0.650000X-1.500000X0.650000X1.500000X0*%
%ADD27RoundRect,0.250000X-0.337500X-0.475000X0.337500X-0.475000X0.337500X0.475000X-0.337500X0.475000X0*%
%ADD28R,1.905000X2.000000*%
%ADD29O,1.905000X2.000000*%
%ADD30RoundRect,0.250000X0.450000X0.350000X-0.450000X0.350000X-0.450000X-0.350000X0.450000X-0.350000X0*%
%ADD31RoundRect,0.250001X-0.639999X0.499999X-0.639999X-0.499999X0.639999X-0.499999X0.639999X0.499999X0*%
%ADD32RoundRect,0.150000X0.150000X-0.825000X0.150000X0.825000X-0.150000X0.825000X-0.150000X-0.825000X0*%
%ADD33C,0.800000*%
%ADD34C,6.400000*%
%ADD35RoundRect,0.375000X0.375000X-0.625000X0.375000X0.625000X-0.375000X0.625000X-0.375000X-0.625000X0*%
%ADD36RoundRect,0.500000X1.400000X-0.500000X1.400000X0.500000X-1.400000X0.500000X-1.400000X-0.500000X0*%
%ADD37RoundRect,0.250000X-1.500000X-0.650000X1.500000X-0.650000X1.500000X0.650000X-1.500000X0.650000X0*%
%ADD38RoundRect,0.250000X1.000000X-1.950000X1.000000X1.950000X-1.000000X1.950000X-1.000000X-1.950000X0*%
%ADD39RoundRect,0.250001X0.499999X0.639999X-0.499999X0.639999X-0.499999X-0.639999X0.499999X-0.639999X0*%
%ADD40RoundRect,0.250001X-1.399999X-3.049999X1.399999X-3.049999X1.399999X3.049999X-1.399999X3.049999X0*%
%ADD41O,3.300000X6.600000*%
%ADD42R,1.500000X1.500000*%
%ADD43RoundRect,0.250000X2.050000X0.300000X-2.050000X0.300000X-2.050000X-0.300000X2.050000X-0.300000X0*%
%ADD44RoundRect,0.250002X4.449998X5.149998X-4.449998X5.149998X-4.449998X-5.149998X4.449998X-5.149998X0*%
%ADD45RoundRect,0.250000X-0.325000X-0.450000X0.325000X-0.450000X0.325000X0.450000X-0.325000X0.450000X0*%
%ADD46RoundRect,0.250000X-0.450000X0.325000X-0.450000X-0.325000X0.450000X-0.325000X0.450000X0.325000X0*%
%ADD47RoundRect,0.250000X-0.475000X0.337500X-0.475000X-0.337500X0.475000X-0.337500X0.475000X0.337500X0*%
%ADD48RoundRect,0.225000X0.375000X-0.225000X0.375000X0.225000X-0.375000X0.225000X-0.375000X-0.225000X0*%
%ADD49RoundRect,0.250000X0.450000X-0.325000X0.450000X0.325000X-0.450000X0.325000X-0.450000X-0.325000X0*%
%ADD50RoundRect,0.250001X1.399999X3.049999X-1.399999X3.049999X-1.399999X-3.049999X1.399999X-3.049999X0*%
%ADD51R,0.600000X1.550000*%
%ADD52R,3.100000X2.600000*%
%ADD53RoundRect,0.250000X0.550000X-1.500000X0.550000X1.500000X-0.550000X1.500000X-0.550000X-1.500000X0*%
%ADD54RoundRect,0.075000X-0.662500X-0.075000X0.662500X-0.075000X0.662500X0.075000X-0.662500X0.075000X0*%
%ADD55RoundRect,0.075000X-0.075000X-0.662500X0.075000X-0.662500X0.075000X0.662500X-0.075000X0.662500X0*%
%ADD56RoundRect,0.250000X-1.500000X-0.550000X1.500000X-0.550000X1.500000X0.550000X-1.500000X0.550000X0*%
%ADD57RoundRect,0.250000X-0.900000X1.000000X-0.900000X-1.000000X0.900000X-1.000000X0.900000X1.000000X0*%
%ADD58RoundRect,0.225000X0.250000X-0.225000X0.250000X0.225000X-0.250000X0.225000X-0.250000X-0.225000X0*%
%ADD59RoundRect,0.102000X1.125000X0.800000X-1.125000X0.800000X-1.125000X-0.800000X1.125000X-0.800000X0*%
%ADD60C,1.600000*%
%ADD61RoundRect,0.102000X-1.600000X-2.550000X1.600000X-2.550000X1.600000X2.550000X-1.600000X2.550000X0*%
%ADD62RoundRect,0.250000X0.325000X0.450000X-0.325000X0.450000X-0.325000X-0.450000X0.325000X-0.450000X0*%
%ADD63RoundRect,0.250000X-1.000000X1.950000X-1.000000X-1.950000X1.000000X-1.950000X1.000000X1.950000X0*%
G04 APERTURE END LIST*
D10*
%TO.C,U6*%
X149532500Y-116470000D03*
X146992500Y-116470000D03*
X144452500Y-116470000D03*
D11*
X141912500Y-116470000D03*
%TD*%
D12*
%TO.C,J3*%
X180090000Y-73482500D03*
D13*
X180090000Y-76022500D03*
X180090000Y-78562500D03*
X180090000Y-81102500D03*
%TD*%
D14*
%TO.C,C42*%
X121300000Y-68050000D03*
X119225000Y-68050000D03*
%TD*%
D15*
%TO.C,F2*%
X99450000Y-96235000D03*
X99450000Y-89865000D03*
%TD*%
D16*
%TO.C,R8*%
X171370000Y-64870000D03*
X169370000Y-64870000D03*
%TD*%
D12*
%TO.C,J6*%
X180090000Y-86265000D03*
D13*
X180090000Y-88805000D03*
X180090000Y-91345000D03*
X180090000Y-93885000D03*
%TD*%
D17*
%TO.C,R17*%
X170005000Y-97930000D03*
X171555000Y-97930000D03*
%TD*%
D16*
%TO.C,R9*%
X171380000Y-62780000D03*
X169380000Y-62780000D03*
%TD*%
D17*
%TO.C,R15*%
X161840000Y-80240000D03*
X163390000Y-80240000D03*
%TD*%
D12*
%TO.C,J12*%
X149150000Y-102990000D03*
D13*
X149150000Y-100450000D03*
%TD*%
D18*
%TO.C,R21*%
X170210000Y-77750000D03*
X171860000Y-77750000D03*
%TD*%
D19*
%TO.C,FB1*%
X154750000Y-117125000D03*
X154750000Y-115050000D03*
%TD*%
D20*
%TO.C,R6*%
X128820000Y-30935000D03*
X128820000Y-28935000D03*
%TD*%
D14*
%TO.C,C11*%
X102677500Y-68130000D03*
X100602500Y-68130000D03*
%TD*%
D15*
%TO.C,F1*%
X87800000Y-96235000D03*
X87800000Y-89865000D03*
%TD*%
D20*
%TO.C,R2*%
X131280000Y-102810000D03*
X131280000Y-100810000D03*
%TD*%
D21*
%TO.C,C29*%
X163455000Y-84030000D03*
X161905000Y-84030000D03*
%TD*%
D20*
%TO.C,R25*%
X150310000Y-94550000D03*
X150310000Y-92550000D03*
%TD*%
D22*
%TO.C,D11*%
X149310000Y-32412500D03*
X149310000Y-27412500D03*
%TD*%
D23*
%TO.C,Q4*%
X133580000Y-43450000D03*
D24*
X142730000Y-45990000D03*
D23*
X133580000Y-48530000D03*
%TD*%
D25*
%TO.C,R31*%
X179380000Y-107640000D03*
X179380000Y-109640000D03*
%TD*%
D20*
%TO.C,R19*%
X133540000Y-66200000D03*
X133540000Y-64200000D03*
%TD*%
%TO.C,R22*%
X135550000Y-77550000D03*
X135550000Y-75550000D03*
%TD*%
D26*
%TO.C,D2*%
X99420000Y-59782500D03*
X99420000Y-64782500D03*
%TD*%
D27*
%TO.C,C9*%
X103100000Y-57380000D03*
X105175000Y-57380000D03*
%TD*%
D17*
%TO.C,C34*%
X166585000Y-97930000D03*
X168135000Y-97930000D03*
%TD*%
D28*
%TO.C,U4*%
X104660000Y-78050000D03*
D29*
X107200000Y-78050000D03*
X109740000Y-78050000D03*
%TD*%
D30*
%TO.C,Y1*%
X158977500Y-86877500D03*
X156777500Y-86877500D03*
X156777500Y-88577500D03*
X158977500Y-88577500D03*
%TD*%
D31*
%TO.C,U8*%
X161660000Y-51280000D03*
X159120000Y-51280000D03*
X156580000Y-51280000D03*
X154040000Y-51280000D03*
X154040000Y-60810000D03*
X156580000Y-60810000D03*
X159120000Y-60810000D03*
X161660000Y-60810000D03*
%TD*%
D32*
%TO.C,U2*%
X102810000Y-65675000D03*
X104080000Y-65675000D03*
X105350000Y-65675000D03*
X106620000Y-65675000D03*
X106620000Y-60725000D03*
X105350000Y-60725000D03*
X104080000Y-60725000D03*
X102810000Y-60725000D03*
%TD*%
D20*
%TO.C,R26*%
X135000000Y-88920000D03*
X135000000Y-86920000D03*
%TD*%
D14*
%TO.C,C23*%
X175187500Y-62810000D03*
X173112500Y-62810000D03*
%TD*%
D33*
%TO.C,H6*%
X87050000Y-25000000D03*
X85352944Y-24297056D03*
X88747056Y-24297056D03*
X84650000Y-22600000D03*
D34*
X87050000Y-22600000D03*
D33*
X89450000Y-22600000D03*
X85352944Y-20902944D03*
X88747056Y-20902944D03*
X87050000Y-20200000D03*
%TD*%
D31*
%TO.C,U7*%
X173650000Y-51265000D03*
X171110000Y-51265000D03*
X168570000Y-51265000D03*
X166030000Y-51265000D03*
X166030000Y-60795000D03*
X168570000Y-60795000D03*
X171110000Y-60795000D03*
X173650000Y-60795000D03*
%TD*%
D33*
%TO.C,H7*%
X87050000Y-117000000D03*
X85352944Y-116297056D03*
X88747056Y-116297056D03*
X84650000Y-114600000D03*
D34*
X87050000Y-114600000D03*
D33*
X89450000Y-114600000D03*
X85352944Y-112902944D03*
X88747056Y-112902944D03*
X87050000Y-112200000D03*
%TD*%
D35*
%TO.C,U5*%
X165950000Y-111970000D03*
X168250000Y-111970000D03*
D36*
X168250000Y-105670000D03*
D35*
X170550000Y-111970000D03*
%TD*%
D12*
%TO.C,J16*%
X85320000Y-53265000D03*
D13*
X85320000Y-50725000D03*
%TD*%
D19*
%TO.C,C17*%
X152770000Y-117117500D03*
X152770000Y-115042500D03*
%TD*%
D37*
%TO.C,D7*%
X111010000Y-22430000D03*
X116010000Y-22430000D03*
%TD*%
D18*
%TO.C,R20*%
X170210000Y-80740000D03*
X171860000Y-80740000D03*
%TD*%
D20*
%TO.C,R7*%
X128840000Y-48225000D03*
X128840000Y-46225000D03*
%TD*%
D12*
%TO.C,J10*%
X136365000Y-116570000D03*
D13*
X133825000Y-116570000D03*
%TD*%
D33*
%TO.C,H5*%
X178775000Y-25000000D03*
X177077944Y-24297056D03*
X180472056Y-24297056D03*
X176375000Y-22600000D03*
D34*
X178775000Y-22600000D03*
D33*
X181175000Y-22600000D03*
X177077944Y-20902944D03*
X180472056Y-20902944D03*
X178775000Y-20200000D03*
%TD*%
D38*
%TO.C,C5*%
X136960000Y-106390000D03*
X136960000Y-98990000D03*
%TD*%
D14*
%TO.C,C32*%
X175187500Y-64840000D03*
X173112500Y-64840000D03*
%TD*%
D27*
%TO.C,C4*%
X126287500Y-89350000D03*
X128362500Y-89350000D03*
%TD*%
D16*
%TO.C,R13*%
X174320000Y-49140000D03*
X172320000Y-49140000D03*
%TD*%
D27*
%TO.C,C10*%
X121495000Y-57360000D03*
X123570000Y-57360000D03*
%TD*%
D32*
%TO.C,U3*%
X121285000Y-65775000D03*
X122555000Y-65775000D03*
X123825000Y-65775000D03*
X125095000Y-65775000D03*
X125095000Y-60825000D03*
X123825000Y-60825000D03*
X122555000Y-60825000D03*
X121285000Y-60825000D03*
%TD*%
D17*
%TO.C,C27*%
X171865000Y-84670000D03*
X173415000Y-84670000D03*
%TD*%
D12*
%TO.C,J13*%
X126320000Y-80340000D03*
D13*
X128860000Y-80340000D03*
%TD*%
D12*
%TO.C,J15*%
X90320000Y-53270000D03*
D13*
X90320000Y-50730000D03*
%TD*%
D21*
%TO.C,R12*%
X164715000Y-97930000D03*
X163165000Y-97930000D03*
%TD*%
D20*
%TO.C,R3*%
X131280000Y-98785000D03*
X131280000Y-96785000D03*
%TD*%
D39*
%TO.C,U10*%
X148465000Y-67930000D03*
X148465000Y-65390000D03*
X148465000Y-62850000D03*
X148465000Y-60310000D03*
X138935000Y-60310000D03*
X138935000Y-62850000D03*
X138935000Y-65390000D03*
X138935000Y-67930000D03*
%TD*%
D40*
%TO.C,J1*%
X99450000Y-105030000D03*
D41*
X108950000Y-105030000D03*
%TD*%
D42*
%TO.C,SW1*%
X171260000Y-100740000D03*
X163460000Y-100740000D03*
%TD*%
D21*
%TO.C,C25*%
X163457500Y-82540000D03*
X161907500Y-82540000D03*
%TD*%
D43*
%TO.C,Q2*%
X116215000Y-49765000D03*
D44*
X107065000Y-47225000D03*
D43*
X116215000Y-44685000D03*
%TD*%
D33*
%TO.C,H8*%
X179050000Y-117000000D03*
X177352944Y-116297056D03*
X180747056Y-116297056D03*
X176650000Y-114600000D03*
D34*
X179050000Y-114600000D03*
D33*
X181450000Y-114600000D03*
X177352944Y-112902944D03*
X180747056Y-112902944D03*
X179050000Y-112200000D03*
%TD*%
D19*
%TO.C,C38*%
X133540000Y-81387500D03*
X133540000Y-79312500D03*
%TD*%
D12*
%TO.C,J5*%
X180090000Y-28410000D03*
D13*
X180090000Y-30950000D03*
X180090000Y-33490000D03*
X180090000Y-36030000D03*
%TD*%
D21*
%TO.C,R16*%
X158652500Y-90260000D03*
X157102500Y-90260000D03*
%TD*%
D12*
%TO.C,J4*%
X180090000Y-60720000D03*
D13*
X180090000Y-63260000D03*
X180090000Y-65800000D03*
X180090000Y-68340000D03*
%TD*%
D20*
%TO.C,R29*%
X86430000Y-66970000D03*
X86430000Y-64970000D03*
%TD*%
D14*
%TO.C,C24*%
X163190000Y-64855000D03*
X161115000Y-64855000D03*
%TD*%
D45*
%TO.C,D15*%
X109375000Y-84000000D03*
X111425000Y-84000000D03*
%TD*%
D19*
%TO.C,C15*%
X113775000Y-80037500D03*
X113775000Y-77962500D03*
%TD*%
D46*
%TO.C,D16*%
X181310000Y-107615000D03*
X181310000Y-109665000D03*
%TD*%
D14*
%TO.C,C12*%
X102690000Y-70130000D03*
X100615000Y-70130000D03*
%TD*%
D20*
%TO.C,R27*%
X136950000Y-88920000D03*
X136950000Y-86920000D03*
%TD*%
D22*
%TO.C,D12*%
X149480000Y-48467500D03*
X149480000Y-43467500D03*
%TD*%
D19*
%TO.C,C39*%
X135550000Y-69987500D03*
X135550000Y-67912500D03*
%TD*%
D47*
%TO.C,C20*%
X172900000Y-105272500D03*
X172900000Y-107347500D03*
%TD*%
D16*
%TO.C,R14*%
X162330000Y-49250000D03*
X160330000Y-49250000D03*
%TD*%
%TO.C,R30*%
X115200000Y-84000000D03*
X113200000Y-84000000D03*
%TD*%
D14*
%TO.C,C41*%
X121300000Y-70050000D03*
X119225000Y-70050000D03*
%TD*%
D48*
%TO.C,D9*%
X126680000Y-31562500D03*
X126680000Y-28262500D03*
%TD*%
%TO.C,D3*%
X124350000Y-31562500D03*
X124350000Y-28262500D03*
%TD*%
D20*
%TO.C,R5*%
X122220000Y-48225000D03*
X122220000Y-46225000D03*
%TD*%
D49*
%TO.C,D14*%
X84480000Y-66950000D03*
X84480000Y-64900000D03*
%TD*%
D48*
%TO.C,D4*%
X124350000Y-48852500D03*
X124350000Y-45552500D03*
%TD*%
D14*
%TO.C,C33*%
X163190000Y-62885000D03*
X161115000Y-62885000D03*
%TD*%
D12*
%TO.C,J14*%
X126330000Y-75340000D03*
D13*
X128870000Y-75340000D03*
%TD*%
D50*
%TO.C,J2*%
X168570000Y-32400000D03*
D41*
X159070000Y-32400000D03*
%TD*%
D20*
%TO.C,R28*%
X148360000Y-94550000D03*
X148360000Y-92550000D03*
%TD*%
D21*
%TO.C,C35*%
X158652500Y-85212500D03*
X157102500Y-85212500D03*
%TD*%
D12*
%TO.C,J11*%
X154150000Y-102990000D03*
D13*
X154150000Y-100450000D03*
%TD*%
D14*
%TO.C,C19*%
X170550000Y-114200000D03*
X168475000Y-114200000D03*
%TD*%
D51*
%TO.C,U1*%
X125325000Y-98800000D03*
X126595000Y-98800000D03*
X127865000Y-98800000D03*
X129135000Y-98800000D03*
X129135000Y-93400000D03*
X127865000Y-93400000D03*
X126595000Y-93400000D03*
X125325000Y-93400000D03*
D52*
X127230000Y-96100000D03*
%TD*%
D53*
%TO.C,C16*%
X118650000Y-82250000D03*
X118650000Y-76650000D03*
%TD*%
D54*
%TO.C,U9*%
X163197500Y-85810000D03*
X163197500Y-86310000D03*
X163197500Y-86810000D03*
X163197500Y-87310000D03*
X163197500Y-87810000D03*
X163197500Y-88310000D03*
X163197500Y-88810000D03*
X163197500Y-89310000D03*
X163197500Y-89810000D03*
X163197500Y-90310000D03*
X163197500Y-90810000D03*
X163197500Y-91310000D03*
D55*
X164610000Y-92722500D03*
X165110000Y-92722500D03*
X165610000Y-92722500D03*
X166110000Y-92722500D03*
X166610000Y-92722500D03*
X167110000Y-92722500D03*
X167610000Y-92722500D03*
X168110000Y-92722500D03*
X168610000Y-92722500D03*
X169110000Y-92722500D03*
X169610000Y-92722500D03*
X170110000Y-92722500D03*
D54*
X171522500Y-91310000D03*
X171522500Y-90810000D03*
X171522500Y-90310000D03*
X171522500Y-89810000D03*
X171522500Y-89310000D03*
X171522500Y-88810000D03*
X171522500Y-88310000D03*
X171522500Y-87810000D03*
X171522500Y-87310000D03*
X171522500Y-86810000D03*
X171522500Y-86310000D03*
X171522500Y-85810000D03*
D55*
X170110000Y-84397500D03*
X169610000Y-84397500D03*
X169110000Y-84397500D03*
X168610000Y-84397500D03*
X168110000Y-84397500D03*
X167610000Y-84397500D03*
X167110000Y-84397500D03*
X166610000Y-84397500D03*
X166110000Y-84397500D03*
X165610000Y-84397500D03*
X165110000Y-84397500D03*
X164610000Y-84397500D03*
%TD*%
D56*
%TO.C,C22*%
X175060000Y-100220000D03*
X180660000Y-100220000D03*
%TD*%
D16*
%TO.C,R1*%
X128720000Y-114535000D03*
X126720000Y-114535000D03*
%TD*%
D39*
%TO.C,U11*%
X148465000Y-79340000D03*
X148465000Y-76800000D03*
X148465000Y-74260000D03*
X148465000Y-71720000D03*
X138935000Y-71720000D03*
X138935000Y-74260000D03*
X138935000Y-76800000D03*
X138935000Y-79340000D03*
%TD*%
D23*
%TO.C,Q3*%
X133435000Y-27395000D03*
D24*
X142585000Y-29935000D03*
D23*
X133435000Y-32475000D03*
%TD*%
D26*
%TO.C,D5*%
X118180000Y-59840000D03*
X118180000Y-64840000D03*
%TD*%
D47*
%TO.C,C14*%
X100560000Y-77962500D03*
X100560000Y-80037500D03*
%TD*%
D17*
%TO.C,C28*%
X171855000Y-92490000D03*
X173405000Y-92490000D03*
%TD*%
D27*
%TO.C,C3*%
X126287500Y-91325000D03*
X128362500Y-91325000D03*
%TD*%
D57*
%TO.C,D1*%
X121125000Y-92075000D03*
X121125000Y-96375000D03*
%TD*%
D16*
%TO.C,R11*%
X159370000Y-62855000D03*
X157370000Y-62855000D03*
%TD*%
D12*
%TO.C,J8*%
X174220000Y-70610000D03*
D13*
X171680000Y-70610000D03*
X169140000Y-70610000D03*
%TD*%
D17*
%TO.C,C31*%
X161310000Y-92460000D03*
X162860000Y-92460000D03*
%TD*%
D19*
%TO.C,C37*%
X133540000Y-69987500D03*
X133540000Y-67912500D03*
%TD*%
D58*
%TO.C,C36*%
X155007500Y-88502500D03*
X155007500Y-86952500D03*
%TD*%
D59*
%TO.C,U12*%
X147950000Y-87290000D03*
X147950000Y-84750000D03*
X139450000Y-84750000D03*
X139450000Y-87290000D03*
%TD*%
D20*
%TO.C,R18*%
X135550000Y-66175000D03*
X135550000Y-64175000D03*
%TD*%
D47*
%TO.C,C21*%
X174900000Y-105280000D03*
X174900000Y-107355000D03*
%TD*%
D38*
%TO.C,C18*%
X160010000Y-113570000D03*
X160010000Y-106170000D03*
%TD*%
D20*
%TO.C,R23*%
X133540000Y-77550000D03*
X133540000Y-75550000D03*
%TD*%
D12*
%TO.C,J7*%
X154550000Y-74762500D03*
D13*
X154550000Y-77302500D03*
X154550000Y-79842500D03*
%TD*%
D20*
%TO.C,R24*%
X152260000Y-94550000D03*
X152260000Y-92550000D03*
%TD*%
D17*
%TO.C,C26*%
X161310000Y-93920000D03*
X162860000Y-93920000D03*
%TD*%
D60*
%TO.C,C6*%
X95900000Y-38470000D03*
X90900000Y-38470000D03*
%TD*%
D61*
%TO.C,L1*%
X117680000Y-106590000D03*
X127780000Y-106590000D03*
%TD*%
D62*
%TO.C,D6*%
X128710000Y-116505000D03*
X126660000Y-116505000D03*
%TD*%
D63*
%TO.C,C2*%
X109100000Y-89200000D03*
X109100000Y-96600000D03*
%TD*%
D19*
%TO.C,C40*%
X135550000Y-81387500D03*
X135550000Y-79312500D03*
%TD*%
D16*
%TO.C,R10*%
X159370000Y-64885000D03*
X157370000Y-64885000D03*
%TD*%
D12*
%TO.C,J9*%
X133815000Y-111490000D03*
D13*
X136355000Y-111490000D03*
%TD*%
D14*
%TO.C,C1*%
X122530000Y-98970000D03*
X120455000Y-98970000D03*
%TD*%
D48*
%TO.C,D10*%
X126680000Y-48852500D03*
X126680000Y-45552500D03*
%TD*%
D46*
%TO.C,D13*%
X111922500Y-68175000D03*
X111922500Y-70225000D03*
%TD*%
D63*
%TO.C,C13*%
X94670000Y-77100000D03*
X94670000Y-84500000D03*
%TD*%
D37*
%TO.C,D8*%
X111010000Y-39670000D03*
X116010000Y-39670000D03*
%TD*%
D43*
%TO.C,Q1*%
X116285000Y-32540000D03*
D44*
X107135000Y-30000000D03*
D43*
X116285000Y-27460000D03*
%TD*%
D20*
%TO.C,R4*%
X122240000Y-30935000D03*
X122240000Y-28935000D03*
%TD*%
M02*
